<?xml version="1.0" standalone="no"?>
<!DOCTYPE svg PUBLIC "-//W3C//DTD SVG 20010904//EN" "http://www.w3.org/TR/2001/REC-SVG-20010904/DTD/svg10.dtd">
<svg version="1.0" xmlns="http://www.w3.org/2000/svg"
  width="549.000000pt" height="426.000000pt" viewBox="0 0 549.000000 426.000000"
  preserveAspectRatio="xMidYMid meet">

  <g transform="translate(0.000000,426.000000) scale(0.100000,-0.100000)"
    fill="#000000" stroke="none">
    <path
      d="M2847 4070 c-92 -24 -179 -96 -219 -185 -17 -38 -22 -68 -22 -130 0
-98 24 -159 90 -226 l45 -46 -642 -1237 -643 -1236 -533 0 -533 0 0 -65 0 -65
352 0 353 0 -200 -203 c-594 -602 -551 -555 -532 -574 17 -17 35 -1 410 380
l392 398 375 -1 375 0 -200 -203 c-594 -602 -551 -555 -532 -574 17 -17 35 -1
410 380 l392 398 365 -1 365 0 -200 -203 c-594 -602 -551 -555 -532 -574 17
-17 35 -1 410 380 l392 398 375 -1 375 0 -200 -203 c-594 -602 -551 -555 -532
-574 17 -17 35 -1 410 380 l392 398 380 -1 380 0 -200 -203 c-594 -602 -551
-555 -532 -574 17 -17 35 -1 410 380 l392 398 335 -1 335 0 -200 -202 c-594
-603 -551 -556 -532 -575 17 -17 35 -1 410 380 228 231 399 398 410 397 14 0
17 10 17 65 l0 65 -408 0 -408 0 -643 1236 -642 1237 45 46 c66 67 90 128 90
226 0 61 -5 92 -23 131 -27 63 -101 136 -163 164 -55 24 -156 33 -211 20z
m189 -98 c86 -44 128 -116 128 -217 0 -76 -15 -117 -63 -168 -46 -50 -98 -71
-176 -71 -78 0 -130 21 -176 71 -48 51 -63 92 -63 168 0 117 60 199 174 236
40 13 133 3 176 -19z m-111 -537 c28 0 64 3 81 7 l31 7 629 -1211 c346 -666
631 -1214 632 -1219 2 -5 -577 -9 -1373 -9 -796 0 -1375 4 -1373 9 2 5 286
553 632 1219 l629 1211 31 -7 c17 -4 54 -7 81 -7z" />
  </g>
</svg>